<?xml version="1.0" encoding="UTF-8"?>
<svg width="48px" height="48px" viewBox="0 0 48 48" version="1.1" xmlns="http://www.w3.org/2000/svg" xmlns:xlink="http://www.w3.org/1999/xlink">
    <!-- Generator: Sketch 64 (93537) - https://sketch.com -->
    <title>close@3x</title>
    <desc>Created with Sketch.</desc>
    <defs>
        <path d="M23.8,12 L24.2,12 C24.7522847,12 25.2,12.4477153 25.2,13 L25.2,22.8 L25.2,22.8 L35,22.8 C35.5522847,22.8 36,23.2477153 36,23.8 L36,24.2 C36,24.7522847 35.5522847,25.2 35,25.2 L25.2,25.2 L25.2,25.2 L25.2,35 C25.2,35.5522847 24.7522847,36 24.2,36 L23.8,36 C23.2477153,36 22.8,35.5522847 22.8,35 L22.8,25.2 L22.8,25.2 L13,25.2 C12.4477153,25.2 12,24.7522847 12,24.2 L12,23.8 C12,23.2477153 12.4477153,22.8 13,22.8 L22.8,22.8 L22.8,22.8 L22.8,13 C22.8,12.4477153 23.2477153,12 23.8,12 Z" id="path-1"></path>
    </defs>
    <g id="WIP" stroke="none" stroke-width="1" fill="none" fill-rule="evenodd">
        <g id="close">
            <circle id="Oval" fill="#FF4E2E" cx="24" cy="24" r="24"></circle>
            <mask id="mask-2" fill="white">
                <use xlink:href="#path-1"></use>
            </mask>
            <use id="#white" fill="#FFFFFF" transform="translate(24.000000, 24.000000) rotate(-45.000000) translate(-24.000000, -24.000000) " xlink:href="#path-1"></use>
        </g>
    </g>
</svg>