<?xml version="1.0" encoding="UTF-8"?>
<svg width="192px" height="48px" viewBox="0 0 192 48" version="1.1" xmlns="http://www.w3.org/2000/svg" xmlns:xlink="http://www.w3.org/1999/xlink">
    <!-- Generator: Sketch 64 (93537) - https://sketch.com -->
    <title>footer-icons@3x</title>
    <desc>Created with Sketch.</desc>
    <g id="footer-icons" stroke="none" stroke-width="1" fill="none" fill-rule="evenodd">
        <rect id="Rectangle" x="0" y="0" width="48" height="48"></rect>
        <rect id="Rectangle-Copy" x="48" y="0" width="48" height="48"></rect>
        <rect id="Rectangle-Copy-2" x="96" y="0" width="48" height="48"></rect>
        <rect id="Rectangle-Copy-3" x="144" y="0" width="48" height="48"></rect>
        <g id="footer__vk@" transform="translate(6.000000, 14.000000)" fill="#8993AD">
            <path d="M17.574375,20.593125 L19.72125,20.593125 C19.72125,20.593125 20.37,20.521875 20.7,20.16375 C21.005625,19.8375 20.99625,19.22625 20.99625,19.22625 C20.99625,19.22625 20.953125,16.344375 22.29,15.920625 C23.626875,15.496875 25.30125,18.705 27.095625,19.936875 C28.45125,20.874375 29.4825,20.664375 29.4825,20.664375 L34.27875,20.596875 C34.27875,20.596875 36.7875,20.44125 35.59125,18.46875 C35.49375,18.3075 34.8975,17.01 32.02875,14.34375 C29.02875,11.55375 29.424375,12.00375 33.04875,7.175625 C35.25,4.228125 36.13875,2.4375 35.863125,1.665 C35.600625,0.9375 33.976875,1.125 33.976875,1.125 L28.576875,1.15875 C28.3372604,1.13037017 28.094602,1.17342246 27.879375,1.2825 C27.6741264,1.43218193 27.5102542,1.63153827 27.403125,1.861875 C26.8438119,3.31329896 26.17696,4.72095808 25.408125,6.073125 C23.0025,10.156875 22.033125,10.3725 21.658125,10.119375 C20.743125,9.526875 20.971875,7.74375 20.971875,6.478125 C20.971875,2.52 21.571875,0.87 19.801875,0.4425 C19.205625,0.3 18.774375,0.208125 17.2725,0.1875 C15.345,0.16875 13.71,0.1875 12.79125,0.646875 C12.17625,0.950625 11.701875,1.621875 12,1.66125 C12.358125,1.708125 13.16625,1.87875 13.59375,2.461875 C14.15625,3.211875 14.128125,4.899375 14.128125,4.899375 C14.128125,4.899375 14.4375,9.5625 13.37625,10.14375 C12.64875,10.539375 11.649375,9.729375 9.50625,6.01875 C8.77831433,4.73145482 8.13386121,3.39870823 7.576875,2.02875 C7.47608294,1.79514561 7.32119994,1.58884917 7.125,1.426875 C6.87442092,1.25985752 6.59243304,1.14565881 6.29625,1.09125 L1.17,1.125 C1.17,1.125 0.399375,1.1475 0.118125,1.483125 C-0.135,1.78125 0.0975,2.39625 0.0975,2.39625 C0.0975,2.39625 4.125,11.7975 8.664375,16.53375 C12.83625,20.878125 17.574375,20.593125 17.574375,20.593125 Z" id="vk_alt"></path>
        </g>
        <g id="footer__f_1@" transform="translate(65.000000, 8.000000)" fill="#8993AD" fill-rule="nonzero">
            <path d="M9.02270833,26.7647917 L9.02270833,14.555625 L13.125,14.555625 L13.7375,9.79854167 L9.02270833,9.79854167 L9.02270833,6.76083333 C9.02270833,5.38270833 9.40479167,4.44354167 11.379375,4.44354167 L13.899375,4.44354167 L13.899375,0.186666667 C12.6800852,0.0584194496 11.4547597,-0.00389349012 10.22875,-0.000171734183 C6.59604167,-0.000171734183 4.10375,2.21666667 4.10375,6.28979167 L4.10375,9.79854167 L0,9.79854167 L0,14.555625 L4.108125,14.555625 L4.108125,26.7647917 L9.02270833,26.7647917 Z" id="facebook"></path>
        </g>
        <g id="footer__f@" transform="translate(105.000000, 11.000000)" fill="#8993AD" fill-rule="nonzero">
            <path d="M29.8383234,2.8742515 C28.7209973,3.36895059 27.536084,3.6940903 26.3227545,3.83892216 C27.6023708,3.07403187 28.5601072,1.86983796 29.0173653,0.450898204 C27.8158543,1.16436847 26.5010479,1.66683838 25.1299401,1.93652695 C23.2332098,-0.0827528608 20.2175474,-0.57819707 17.7744583,0.728092309 C15.3313691,2.03438169 14.0686673,4.81741399 14.6946108,7.51616766 C9.77222579,7.26950057 5.18589963,4.94499586 2.07664671,1.12095808 C0.452544649,3.91817606 1.2823134,7.49601306 3.97185629,9.29281437 C2.9994614,9.26286607 2.04838184,9.00045682 1.19820359,8.52754491 L1.19820359,8.60479042 C1.19916121,11.518384 3.25218849,14.0281404 6.10778443,14.6065868 C5.58088941,14.7502331 5.03714274,14.8227326 4.49101796,14.8221557 C4.10461691,14.8214383 3.71912152,14.7847531 3.33952096,14.7125749 C4.1409171,17.2060223 6.43887062,18.9141461 9.05748503,18.9628743 C6.89064515,20.6636067 4.21505299,21.5866828 1.46047904,21.5838323 C0.972370418,21.5841832 0.484676274,21.5553894 0,21.4976048 C2.79873949,23.2978014 6.05672248,24.2538672 9.38443114,24.2515014 C20.6443114,24.2515014 26.8005988,14.9227545 26.8005988,6.82634731 C26.8005988,6.56047904 26.8005988,6.28742515 26.7826347,6.03413174 C27.980286,5.17010467 29.0149229,4.10018914 29.8383234,2.8742515 Z" id="twitter"></path>
        </g>
        <g id="footer__inst@" transform="translate(156.000000, 10.000000)" fill="#8993AD" fill-rule="nonzero">
            <path d="M12.4949664,2.25167785 C15.8322148,2.25167785 16.2281879,2.26342282 17.545302,2.3238255 C18.7634228,2.37919463 19.4244966,2.58389262 19.8657718,2.75503356 C20.4108605,2.95499558 20.9040087,3.27496849 21.3087248,3.69127517 C21.7239416,4.09393678 22.0433356,4.58478287 22.2432886,5.12751678 C22.4110738,5.56879195 22.6174497,6.22986577 22.6744966,7.44798658 C22.7332215,8.76510067 22.7466443,9.16107383 22.7466443,12.4966443 C22.7466443,15.8322148 22.7332215,16.2298658 22.6744966,17.5469799 C22.6174497,18.7651007 22.4144295,19.4261745 22.2432886,19.8674497 C21.8227793,20.9567326 20.9617662,21.8177457 19.8724832,22.238255 C19.4312081,22.4060403 18.7701342,22.6124161 17.5520134,22.6694631 C16.2348993,22.7281879 15.8389262,22.7416107 12.5016779,22.7416107 C9.16442953,22.7416107 8.77013423,22.7281879 7.45302013,22.6694631 C6.23489933,22.6124161 5.5738255,22.409396 5.13255034,22.238255 C4.58848578,22.040439 4.0958978,21.7227513 3.69127517,21.3087248 C3.27641308,20.9057713 2.95707494,20.4150111 2.75671141,19.8724832 C2.58892617,19.4312081 2.38087248,18.7701342 2.32550336,17.5520134 C2.26510067,16.2348993 2.2533557,15.8389262 2.2533557,12.5016779 C2.2533557,9.16442953 2.26510067,8.77013423 2.32550336,7.45302013 C2.38087248,6.23489933 2.58557047,5.5738255 2.75671141,5.13255034 C2.95599439,4.58801353 3.27542824,4.09538575 3.69127517,3.69127517 C4.09393678,3.27605844 4.58478287,2.95666443 5.12751678,2.75671141 C5.56879195,2.58892617 6.22986577,2.38087248 7.44798658,2.32550336 C8.76510067,2.26510067 9.16107383,2.2533557 12.4966443,2.2533557 M12.4949664,0 C9.10234899,0 8.6761745,0.0151006711 7.34395973,0.0755033557 C6.30722604,0.0961289455 5.28149773,0.292424298 4.31040268,0.656040268 C3.47651573,0.969498917 2.72120102,1.46139834 2.09731544,2.09731544 C1.46139834,2.72120102 0.969498917,3.47651573 0.656040268,4.31040268 C0.292424298,5.28149773 0.0961289455,6.30722604 0.0755033557,7.34395973 C0.0151006711,8.6761745 0,9.10234899 0,12.4949664 C0,15.8875839 0.0151006711,16.3154362 0.0755033557,17.647651 C0.0961289455,18.6843847 0.292424298,19.710113 0.656040268,20.6812081 C0.969498917,21.515095 1.46139834,22.2704097 2.09731544,22.8942953 C2.72186312,23.5277896 3.4771279,24.017366 4.31040268,24.3288591 C5.28149773,24.692475 6.30722604,24.8887704 7.34395973,24.909396 C8.6761745,24.9697987 9.10234899,24.9848993 12.4949664,24.9848993 C15.8875839,24.9848993 16.3154362,24.9697987 17.647651,24.909396 C18.6843847,24.8887704 19.710113,24.692475 20.6812081,24.3288591 C22.355592,23.6794891 23.6794891,22.355592 24.3288591,20.6812081 C24.692475,19.710113 24.8887704,18.6843847 24.909396,17.647651 C24.9697987,16.3154362 24.9848993,15.8892617 24.9848993,12.4949664 C24.9848993,9.10067114 24.9697987,8.6761745 24.909396,7.34395973 C24.8887704,6.30722604 24.692475,5.28149773 24.3288591,4.31040268 C24.0154004,3.47651573 23.523501,2.72120102 22.8875839,2.09731544 C22.2636983,1.46139834 21.5083836,0.969498917 20.6744966,0.656040268 C19.7055202,0.293168151 18.682124,0.0968848368 17.647651,0.0755033557 C16.3154362,0.0151006711 15.8892617,0 12.4949664,0 Z" id="Shape"></path>
            <path d="M12.4949664,6.07885884 C9.89906195,6.07885884 7.55879849,7.64268393 6.56554567,10.0410519 C5.57229284,12.4394199 6.1216789,15.1999553 7.95750053,17.035297 C9.79332216,18.8706387 12.5540012,19.4193029 14.9521093,18.425423 C17.3502175,17.4315431 18.9134303,15.0908708 18.9127519,12.4949664 C18.9127519,10.7930182 18.2365406,9.16080188 17.0329242,7.95750009 C15.8293077,6.75419831 14.1969146,6.07841399 12.4949664,6.07885884 Z M12.4949664,16.6610738 C10.1940889,16.6610738 8.32885906,14.795844 8.32885906,12.4949664 C8.32885906,10.1940889 10.1940889,8.32885906 12.4949664,8.32885906 C14.795844,8.32885906 16.6610738,10.1940889 16.6610738,12.4949664 C16.6610738,13.5998868 16.2221459,14.6595525 15.4408492,15.4408492 C14.6595525,16.2221459 13.5998868,16.6610738 12.4949664,16.6610738 Z" id="Shape"></path>
            <circle id="Oval" cx="19.1661074" cy="5.82550336" r="1.5"></circle>
        </g>
    </g>
</svg>